<mxfile host="app.diagrams.net" modified="2021-03-04T03:14:30.986Z" agent="5.0 (Macintosh; Intel Mac OS X 10_13_6) AppleWebKit/537.36 (KHTML, like Gecko) Chrome/88.0.4324.182 Safari/537.36" etag="tWS4s_by15_k8daTzf3m" version="14.4.3" type="github" pages="2">
  <diagram id="soqSBY8rFJ3MJ6SPKFcQ" name="Page-1">
    <mxGraphModel dx="862" dy="615" grid="1" gridSize="10" guides="1" tooltips="1" connect="1" arrows="1" fold="1" page="1" pageScale="1" pageWidth="827" pageHeight="1169" math="0" shadow="0">
      <root>
        <mxCell id="0" />
        <mxCell id="1" parent="0" />
        <mxCell id="knyb-PwK3GWkxclU8VCy-12" style="edgeStyle=orthogonalEdgeStyle;rounded=0;orthogonalLoop=1;jettySize=auto;html=1;entryX=1;entryY=0.75;entryDx=0;entryDy=0;fillColor=#fff2cc;strokeWidth=3;strokeColor=#FF0000;" parent="1" source="knyb-PwK3GWkxclU8VCy-1" target="knyb-PwK3GWkxclU8VCy-4" edge="1">
          <mxGeometry relative="1" as="geometry">
            <Array as="points">
              <mxPoint x="360" y="385" />
              <mxPoint x="360" y="385" />
            </Array>
          </mxGeometry>
        </mxCell>
        <mxCell id="knyb-PwK3GWkxclU8VCy-13" value="同步会员信息" style="edgeLabel;html=1;align=center;verticalAlign=middle;resizable=0;points=[];" parent="knyb-PwK3GWkxclU8VCy-12" vertex="1" connectable="0">
          <mxGeometry x="0.2" relative="1" as="geometry">
            <mxPoint x="12" as="offset" />
          </mxGeometry>
        </mxCell>
        <mxCell id="knyb-PwK3GWkxclU8VCy-14" value="同步会员信息&lt;br&gt;好友关系&lt;br&gt;粉丝关系&lt;br&gt;积分余额" style="edgeStyle=orthogonalEdgeStyle;rounded=0;orthogonalLoop=1;jettySize=auto;html=1;exitX=0.75;exitY=1;exitDx=0;exitDy=0;entryX=0.75;entryY=0;entryDx=0;entryDy=0;fillColor=#fff2cc;strokeWidth=3;strokeColor=#FF0000;" parent="1" source="knyb-PwK3GWkxclU8VCy-1" target="knyb-PwK3GWkxclU8VCy-6" edge="1">
          <mxGeometry y="10" relative="1" as="geometry">
            <mxPoint as="offset" />
          </mxGeometry>
        </mxCell>
        <mxCell id="RPGrUnJypbII513YRrt8-1" style="edgeStyle=orthogonalEdgeStyle;rounded=0;orthogonalLoop=1;jettySize=auto;html=1;exitX=1;exitY=0.75;exitDx=0;exitDy=0;entryX=0;entryY=0.75;entryDx=0;entryDy=0;fontSize=18;strokeWidth=3;" edge="1" parent="1" source="knyb-PwK3GWkxclU8VCy-1" target="knyb-PwK3GWkxclU8VCy-5">
          <mxGeometry relative="1" as="geometry" />
        </mxCell>
        <mxCell id="RPGrUnJypbII513YRrt8-2" value="&lt;span style=&quot;font-size: 11px&quot;&gt;查询会员信息&lt;/span&gt;" style="edgeLabel;html=1;align=center;verticalAlign=middle;resizable=0;points=[];fontSize=18;" vertex="1" connectable="0" parent="RPGrUnJypbII513YRrt8-1">
          <mxGeometry x="-0.1706" y="-2" relative="1" as="geometry">
            <mxPoint as="offset" />
          </mxGeometry>
        </mxCell>
        <mxCell id="knyb-PwK3GWkxclU8VCy-1" value="会员中心" style="rounded=0;whiteSpace=wrap;html=1;" parent="1" vertex="1">
          <mxGeometry x="360" y="340" width="120" height="60" as="geometry" />
        </mxCell>
        <mxCell id="knyb-PwK3GWkxclU8VCy-10" value="注册办卡" style="edgeStyle=orthogonalEdgeStyle;rounded=0;orthogonalLoop=1;jettySize=auto;html=1;fillColor=#f8cecc;strokeColor=#FF0000;strokeWidth=3;" parent="1" source="knyb-PwK3GWkxclU8VCy-2" target="knyb-PwK3GWkxclU8VCy-1" edge="1">
          <mxGeometry relative="1" as="geometry">
            <Array as="points">
              <mxPoint x="390" y="290" />
              <mxPoint x="390" y="290" />
            </Array>
          </mxGeometry>
        </mxCell>
        <mxCell id="knyb-PwK3GWkxclU8VCy-15" value="查询会员信息" style="edgeStyle=orthogonalEdgeStyle;rounded=0;orthogonalLoop=1;jettySize=auto;html=1;exitX=0.5;exitY=0;exitDx=0;exitDy=0;entryX=0.5;entryY=1;entryDx=0;entryDy=0;strokeWidth=3;" parent="1" source="knyb-PwK3GWkxclU8VCy-1" target="knyb-PwK3GWkxclU8VCy-2" edge="1">
          <mxGeometry x="-0.5" relative="1" as="geometry">
            <Array as="points">
              <mxPoint x="420" y="230" />
            </Array>
            <mxPoint as="offset" />
          </mxGeometry>
        </mxCell>
        <mxCell id="knyb-PwK3GWkxclU8VCy-16" value="下单（积分增减）" style="edgeStyle=orthogonalEdgeStyle;rounded=0;orthogonalLoop=1;jettySize=auto;html=1;exitX=0.75;exitY=1;exitDx=0;exitDy=0;entryX=0.75;entryY=0;entryDx=0;entryDy=0;fillColor=#dae8fc;strokeColor=#007FFF;strokeWidth=3;" parent="1" source="knyb-PwK3GWkxclU8VCy-2" target="knyb-PwK3GWkxclU8VCy-1" edge="1">
          <mxGeometry x="0.2727" y="36" relative="1" as="geometry">
            <mxPoint as="offset" />
          </mxGeometry>
        </mxCell>
        <mxCell id="knyb-PwK3GWkxclU8VCy-2" value="商城&lt;br&gt;（小程序、公众号、APP）" style="rounded=0;whiteSpace=wrap;html=1;" parent="1" vertex="1">
          <mxGeometry x="360" y="170" width="120" height="60" as="geometry" />
        </mxCell>
        <mxCell id="knyb-PwK3GWkxclU8VCy-17" style="edgeStyle=orthogonalEdgeStyle;rounded=0;orthogonalLoop=1;jettySize=auto;html=1;fillColor=#fff2cc;strokeWidth=3;strokeColor=#007FFF;" parent="1" source="knyb-PwK3GWkxclU8VCy-4" edge="1">
          <mxGeometry relative="1" as="geometry">
            <mxPoint x="360" y="360" as="targetPoint" />
            <Array as="points">
              <mxPoint x="270" y="360" />
              <mxPoint x="270" y="360" />
            </Array>
          </mxGeometry>
        </mxCell>
        <mxCell id="knyb-PwK3GWkxclU8VCy-18" value="同步积分信息" style="edgeLabel;html=1;align=center;verticalAlign=middle;resizable=0;points=[];" parent="knyb-PwK3GWkxclU8VCy-17" vertex="1" connectable="0">
          <mxGeometry x="0.1667" y="1" relative="1" as="geometry">
            <mxPoint x="-12" as="offset" />
          </mxGeometry>
        </mxCell>
        <mxCell id="knyb-PwK3GWkxclU8VCy-4" value="ERP" style="rounded=0;whiteSpace=wrap;html=1;" parent="1" vertex="1">
          <mxGeometry x="120" y="340" width="120" height="60" as="geometry" />
        </mxCell>
        <mxCell id="knyb-PwK3GWkxclU8VCy-7" style="edgeStyle=orthogonalEdgeStyle;rounded=0;orthogonalLoop=1;jettySize=auto;html=1;entryX=1;entryY=0.25;entryDx=0;entryDy=0;fillColor=#f8cecc;strokeColor=#FF0000;strokeWidth=3;exitX=0;exitY=0.25;exitDx=0;exitDy=0;" parent="1" source="knyb-PwK3GWkxclU8VCy-5" target="knyb-PwK3GWkxclU8VCy-1" edge="1">
          <mxGeometry relative="1" as="geometry">
            <Array as="points">
              <mxPoint x="540" y="355" />
              <mxPoint x="540" y="355" />
            </Array>
          </mxGeometry>
        </mxCell>
        <mxCell id="knyb-PwK3GWkxclU8VCy-8" value="注册办卡" style="edgeLabel;html=1;align=center;verticalAlign=middle;resizable=0;points=[];" parent="knyb-PwK3GWkxclU8VCy-7" vertex="1" connectable="0">
          <mxGeometry x="-0.071" y="3" relative="1" as="geometry">
            <mxPoint x="-4" y="-3" as="offset" />
          </mxGeometry>
        </mxCell>
        <mxCell id="knyb-PwK3GWkxclU8VCy-5" value="店员助手&lt;span style=&quot;color: rgba(0 , 0 , 0 , 0) ; font-family: monospace ; font-size: 0px&quot;&gt;%3CmxGraphModel%3E%3Croot%3E%3CmxCell%20id%3D%220%22%2F%3E%3CmxCell%20id%3D%221%22%20parent%3D%220%22%2F%3E%3CmxCell%20id%3D%222%22%20value%3D%22%E4%BC%9A%E5%91%98%E4%B8%AD%E5%BF%83%22%20style%3D%22rounded%3D0%3BwhiteSpace%3Dwrap%3Bhtml%3D1%3B%22%20vertex%3D%221%22%20parent%3D%221%22%3E%3CmxGeometry%20x%3D%22360%22%20y%3D%22240%22%20width%3D%22120%22%20height%3D%2260%22%20as%3D%22geometry%22%2F%3E%3C%2FmxCell%3E%3C%2Froot%3E%3C%2FmxGraphModel%3E&lt;/span&gt;" style="rounded=0;whiteSpace=wrap;html=1;" parent="1" vertex="1">
          <mxGeometry x="600" y="340" width="120" height="60" as="geometry" />
        </mxCell>
        <mxCell id="knyb-PwK3GWkxclU8VCy-9" value="同步会员信息" style="edgeStyle=orthogonalEdgeStyle;rounded=0;orthogonalLoop=1;jettySize=auto;html=1;fillColor=#fff2cc;strokeWidth=3;strokeColor=#FF0000;" parent="1" source="knyb-PwK3GWkxclU8VCy-6" target="knyb-PwK3GWkxclU8VCy-1" edge="1">
          <mxGeometry relative="1" as="geometry">
            <Array as="points">
              <mxPoint x="390" y="470" />
              <mxPoint x="390" y="470" />
            </Array>
          </mxGeometry>
        </mxCell>
        <mxCell id="knyb-PwK3GWkxclU8VCy-26" style="edgeStyle=orthogonalEdgeStyle;rounded=0;orthogonalLoop=1;jettySize=auto;html=1;exitX=1;exitY=0.5;exitDx=0;exitDy=0;strokeColor=#000000;strokeWidth=3;entryX=0.5;entryY=1;entryDx=0;entryDy=0;" parent="1" source="knyb-PwK3GWkxclU8VCy-6" target="knyb-PwK3GWkxclU8VCy-5" edge="1">
          <mxGeometry relative="1" as="geometry">
            <mxPoint x="660" y="400" as="targetPoint" />
            <Array as="points">
              <mxPoint x="660" y="530" />
            </Array>
          </mxGeometry>
        </mxCell>
        <mxCell id="knyb-PwK3GWkxclU8VCy-27" value="查询会员信息" style="edgeLabel;html=1;align=center;verticalAlign=middle;resizable=0;points=[];" parent="knyb-PwK3GWkxclU8VCy-26" vertex="1" connectable="0">
          <mxGeometry x="-0.3057" y="-4" relative="1" as="geometry">
            <mxPoint x="-17.65" y="-4.04" as="offset" />
          </mxGeometry>
        </mxCell>
        <mxCell id="knyb-PwK3GWkxclU8VCy-6" value="CRM" style="rounded=0;whiteSpace=wrap;html=1;" parent="1" vertex="1">
          <mxGeometry x="360" y="500" width="120" height="60" as="geometry" />
        </mxCell>
        <mxCell id="knyb-PwK3GWkxclU8VCy-21" value="下单增减积分" style="edgeStyle=orthogonalEdgeStyle;rounded=0;orthogonalLoop=1;jettySize=auto;html=1;exitX=0.25;exitY=0;exitDx=0;exitDy=0;strokeColor=#007FFF;strokeWidth=3;" parent="1" source="knyb-PwK3GWkxclU8VCy-4" edge="1">
          <mxGeometry relative="1" as="geometry">
            <mxPoint x="119" y="350" as="targetPoint" />
            <Array as="points">
              <mxPoint x="150" y="300" />
              <mxPoint x="90" y="300" />
              <mxPoint x="90" y="350" />
            </Array>
          </mxGeometry>
        </mxCell>
        <mxCell id="025GpW6aKW9atf-hTAfT-3" value="注册办卡" style="edgeStyle=orthogonalEdgeStyle;rounded=0;orthogonalLoop=1;jettySize=auto;html=1;fillColor=#f8cecc;strokeColor=#FF0000;strokeWidth=3;" edge="1" parent="1">
          <mxGeometry relative="1" as="geometry">
            <Array as="points">
              <mxPoint x="80" y="130" />
            </Array>
            <mxPoint x="80" y="130" as="sourcePoint" />
            <mxPoint x="190" y="130" as="targetPoint" />
          </mxGeometry>
        </mxCell>
        <mxCell id="025GpW6aKW9atf-hTAfT-4" value="积分变动" style="edgeStyle=orthogonalEdgeStyle;rounded=0;orthogonalLoop=1;jettySize=auto;html=1;exitX=0.75;exitY=1;exitDx=0;exitDy=0;fillColor=#dae8fc;strokeColor=#007FFF;strokeWidth=3;" edge="1" parent="1">
          <mxGeometry x="-0.0909" relative="1" as="geometry">
            <mxPoint as="offset" />
            <mxPoint x="80" y="170" as="sourcePoint" />
            <mxPoint x="190" y="170" as="targetPoint" />
          </mxGeometry>
        </mxCell>
        <mxCell id="025GpW6aKW9atf-hTAfT-6" value="查询会员信息" style="edgeStyle=orthogonalEdgeStyle;rounded=0;orthogonalLoop=1;jettySize=auto;html=1;exitX=0.5;exitY=1;exitDx=0;exitDy=0;strokeWidth=3;" edge="1" parent="1">
          <mxGeometry x="-0.0909" relative="1" as="geometry">
            <Array as="points">
              <mxPoint x="80" y="210" />
            </Array>
            <mxPoint as="offset" />
            <mxPoint x="80" y="210" as="sourcePoint" />
            <mxPoint x="190" y="210" as="targetPoint" />
          </mxGeometry>
        </mxCell>
        <mxCell id="RPGrUnJypbII513YRrt8-4" style="edgeStyle=orthogonalEdgeStyle;rounded=0;orthogonalLoop=1;jettySize=auto;html=1;exitX=0;exitY=0.75;exitDx=0;exitDy=0;strokeWidth=3;fontSize=18;" edge="1" parent="1" source="knyb-PwK3GWkxclU8VCy-4">
          <mxGeometry relative="1" as="geometry">
            <mxPoint x="170" y="400" as="targetPoint" />
            <Array as="points">
              <mxPoint x="100" y="385" />
              <mxPoint x="100" y="430" />
              <mxPoint x="170" y="430" />
            </Array>
          </mxGeometry>
        </mxCell>
        <mxCell id="RPGrUnJypbII513YRrt8-5" value="&lt;span style=&quot;font-size: 11px&quot;&gt;查询会员信息&lt;/span&gt;" style="edgeLabel;html=1;align=center;verticalAlign=middle;resizable=0;points=[];fontSize=18;" vertex="1" connectable="0" parent="RPGrUnJypbII513YRrt8-4">
          <mxGeometry x="0.2179" relative="1" as="geometry">
            <mxPoint x="-18.76" as="offset" />
          </mxGeometry>
        </mxCell>
        <mxCell id="RPGrUnJypbII513YRrt8-6" value="会员上线后流程" style="text;html=1;strokeColor=none;fillColor=none;align=left;verticalAlign=middle;whiteSpace=wrap;rounded=0;fontSize=20;" vertex="1" parent="1">
          <mxGeometry x="80" y="60" width="250" height="20" as="geometry" />
        </mxCell>
      </root>
    </mxGraphModel>
  </diagram>
  <diagram id="F6n-KzgDNcu7s01zu2RD" name="Page-2">
    <mxGraphModel dx="1222" dy="872" grid="1" gridSize="10" guides="1" tooltips="1" connect="1" arrows="1" fold="1" page="1" pageScale="1" pageWidth="827" pageHeight="1169" math="0" shadow="0">
      <root>
        <mxCell id="84sm-JnvDAqkllqsL5zi-0" />
        <mxCell id="84sm-JnvDAqkllqsL5zi-1" parent="84sm-JnvDAqkllqsL5zi-0" />
        <mxCell id="xqJWrVlXxcV9ZFjP9cWG-0" style="edgeStyle=orthogonalEdgeStyle;rounded=0;orthogonalLoop=1;jettySize=auto;html=1;entryX=1;entryY=0.75;entryDx=0;entryDy=0;fillColor=#fff2cc;strokeWidth=3;strokeColor=#FF0000;" parent="84sm-JnvDAqkllqsL5zi-1" source="xqJWrVlXxcV9ZFjP9cWG-3" target="xqJWrVlXxcV9ZFjP9cWG-10" edge="1">
          <mxGeometry relative="1" as="geometry">
            <Array as="points">
              <mxPoint x="360" y="445" />
              <mxPoint x="360" y="445" />
            </Array>
          </mxGeometry>
        </mxCell>
        <mxCell id="xqJWrVlXxcV9ZFjP9cWG-1" value="同步会员信息" style="edgeLabel;html=1;align=center;verticalAlign=middle;resizable=0;points=[];" parent="xqJWrVlXxcV9ZFjP9cWG-0" vertex="1" connectable="0">
          <mxGeometry x="0.2" relative="1" as="geometry">
            <mxPoint x="12" as="offset" />
          </mxGeometry>
        </mxCell>
        <mxCell id="xqJWrVlXxcV9ZFjP9cWG-2" value="同步会员信息" style="edgeStyle=orthogonalEdgeStyle;rounded=0;orthogonalLoop=1;jettySize=auto;html=1;exitX=0.5;exitY=1;exitDx=0;exitDy=0;entryX=0;entryY=0.5;entryDx=0;entryDy=0;fillColor=#fff2cc;strokeWidth=3;strokeColor=#FF0000;" parent="84sm-JnvDAqkllqsL5zi-1" source="xqJWrVlXxcV9ZFjP9cWG-10" target="xqJWrVlXxcV9ZFjP9cWG-17" edge="1">
          <mxGeometry x="-0.4194" relative="1" as="geometry">
            <mxPoint as="offset" />
          </mxGeometry>
        </mxCell>
        <mxCell id="xqJWrVlXxcV9ZFjP9cWG-3" value="集效系统" style="rounded=0;whiteSpace=wrap;html=1;" parent="84sm-JnvDAqkllqsL5zi-1" vertex="1">
          <mxGeometry x="360" y="400" width="120" height="60" as="geometry" />
        </mxCell>
        <mxCell id="xqJWrVlXxcV9ZFjP9cWG-4" value="注册办卡" style="edgeStyle=orthogonalEdgeStyle;rounded=0;orthogonalLoop=1;jettySize=auto;html=1;fillColor=#f8cecc;strokeColor=#FF0000;strokeWidth=3;" parent="84sm-JnvDAqkllqsL5zi-1" source="xqJWrVlXxcV9ZFjP9cWG-7" target="xqJWrVlXxcV9ZFjP9cWG-3" edge="1">
          <mxGeometry relative="1" as="geometry">
            <Array as="points">
              <mxPoint x="390" y="350" />
              <mxPoint x="390" y="350" />
            </Array>
          </mxGeometry>
        </mxCell>
        <mxCell id="xqJWrVlXxcV9ZFjP9cWG-5" value="查询会员信息" style="edgeStyle=orthogonalEdgeStyle;rounded=0;orthogonalLoop=1;jettySize=auto;html=1;strokeWidth=3;" parent="84sm-JnvDAqkllqsL5zi-1" edge="1" target="xqJWrVlXxcV9ZFjP9cWG-7">
          <mxGeometry x="-0.5" relative="1" as="geometry">
            <Array as="points">
              <mxPoint x="440" y="400" />
            </Array>
            <mxPoint as="offset" />
            <mxPoint x="440" y="400" as="sourcePoint" />
            <mxPoint x="440" y="310" as="targetPoint" />
          </mxGeometry>
        </mxCell>
        <mxCell id="xqJWrVlXxcV9ZFjP9cWG-6" value="下单（积分增减）" style="edgeStyle=orthogonalEdgeStyle;rounded=0;orthogonalLoop=1;jettySize=auto;html=1;exitX=0;exitY=0.5;exitDx=0;exitDy=0;fillColor=#dae8fc;strokeColor=#007FFF;strokeWidth=3;" parent="84sm-JnvDAqkllqsL5zi-1" source="xqJWrVlXxcV9ZFjP9cWG-7" target="xqJWrVlXxcV9ZFjP9cWG-10" edge="1">
          <mxGeometry x="0.2727" y="36" relative="1" as="geometry">
            <mxPoint as="offset" />
            <Array as="points">
              <mxPoint x="220" y="260" />
            </Array>
          </mxGeometry>
        </mxCell>
        <mxCell id="xqJWrVlXxcV9ZFjP9cWG-7" value="小鹿&lt;br&gt;（小程序、公众号、APP）" style="rounded=0;whiteSpace=wrap;html=1;" parent="84sm-JnvDAqkllqsL5zi-1" vertex="1">
          <mxGeometry x="354" y="230" width="120" height="60" as="geometry" />
        </mxCell>
        <mxCell id="xqJWrVlXxcV9ZFjP9cWG-8" style="edgeStyle=orthogonalEdgeStyle;rounded=0;orthogonalLoop=1;jettySize=auto;html=1;fillColor=#fff2cc;strokeWidth=3;strokeColor=#007FFF;" parent="84sm-JnvDAqkllqsL5zi-1" source="xqJWrVlXxcV9ZFjP9cWG-10" edge="1">
          <mxGeometry relative="1" as="geometry">
            <mxPoint x="360" y="420" as="targetPoint" />
            <Array as="points">
              <mxPoint x="270" y="420" />
              <mxPoint x="270" y="420" />
            </Array>
          </mxGeometry>
        </mxCell>
        <mxCell id="xqJWrVlXxcV9ZFjP9cWG-9" value="同步积分信息" style="edgeLabel;html=1;align=center;verticalAlign=middle;resizable=0;points=[];" parent="xqJWrVlXxcV9ZFjP9cWG-8" vertex="1" connectable="0">
          <mxGeometry x="0.1667" y="1" relative="1" as="geometry">
            <mxPoint x="-12" as="offset" />
          </mxGeometry>
        </mxCell>
        <mxCell id="xqJWrVlXxcV9ZFjP9cWG-10" value="ERP" style="rounded=0;whiteSpace=wrap;html=1;" parent="84sm-JnvDAqkllqsL5zi-1" vertex="1">
          <mxGeometry x="120" y="400" width="120" height="60" as="geometry" />
        </mxCell>
        <mxCell id="xqJWrVlXxcV9ZFjP9cWG-11" style="edgeStyle=orthogonalEdgeStyle;rounded=0;orthogonalLoop=1;jettySize=auto;html=1;entryX=1;entryY=0.75;entryDx=0;entryDy=0;fillColor=#f8cecc;strokeColor=#FF0000;strokeWidth=3;" parent="84sm-JnvDAqkllqsL5zi-1" source="xqJWrVlXxcV9ZFjP9cWG-13" target="xqJWrVlXxcV9ZFjP9cWG-17" edge="1">
          <mxGeometry relative="1" as="geometry">
            <Array as="points">
              <mxPoint x="690" y="605" />
            </Array>
          </mxGeometry>
        </mxCell>
        <mxCell id="xqJWrVlXxcV9ZFjP9cWG-12" value="注册办卡" style="edgeLabel;html=1;align=center;verticalAlign=middle;resizable=0;points=[];" parent="xqJWrVlXxcV9ZFjP9cWG-11" vertex="1" connectable="0">
          <mxGeometry x="-0.071" y="3" relative="1" as="geometry">
            <mxPoint as="offset" />
          </mxGeometry>
        </mxCell>
        <mxCell id="xqJWrVlXxcV9ZFjP9cWG-13" value="店员助手&lt;span style=&quot;color: rgba(0 , 0 , 0 , 0) ; font-family: monospace ; font-size: 0px&quot;&gt;%3CmxGraphModel%3E%3Croot%3E%3CmxCell%20id%3D%220%22%2F%3E%3CmxCell%20id%3D%221%22%20parent%3D%220%22%2F%3E%3CmxCell%20id%3D%222%22%20value%3D%22%E4%BC%9A%E5%91%98%E4%B8%AD%E5%BF%83%22%20style%3D%22rounded%3D0%3BwhiteSpace%3Dwrap%3Bhtml%3D1%3B%22%20vertex%3D%221%22%20parent%3D%221%22%3E%3CmxGeometry%20x%3D%22360%22%20y%3D%22240%22%20width%3D%22120%22%20height%3D%2260%22%20as%3D%22geometry%22%2F%3E%3C%2FmxCell%3E%3C%2Froot%3E%3C%2FmxGraphModel%3E&lt;/span&gt;" style="rounded=0;whiteSpace=wrap;html=1;" parent="84sm-JnvDAqkllqsL5zi-1" vertex="1">
          <mxGeometry x="600" y="400" width="120" height="60" as="geometry" />
        </mxCell>
        <mxCell id="xqJWrVlXxcV9ZFjP9cWG-14" value="同步会员信息" style="edgeStyle=orthogonalEdgeStyle;rounded=0;orthogonalLoop=1;jettySize=auto;html=1;fillColor=#fff2cc;strokeWidth=3;strokeColor=#FF0000;exitX=0.5;exitY=0;exitDx=0;exitDy=0;" parent="84sm-JnvDAqkllqsL5zi-1" source="xqJWrVlXxcV9ZFjP9cWG-17" edge="1">
          <mxGeometry relative="1" as="geometry">
            <Array as="points">
              <mxPoint x="420" y="462" />
            </Array>
            <mxPoint x="420" y="462" as="targetPoint" />
          </mxGeometry>
        </mxCell>
        <mxCell id="xqJWrVlXxcV9ZFjP9cWG-15" style="edgeStyle=orthogonalEdgeStyle;rounded=0;orthogonalLoop=1;jettySize=auto;html=1;exitX=1;exitY=0.25;exitDx=0;exitDy=0;entryX=0.25;entryY=1;entryDx=0;entryDy=0;strokeColor=#000000;strokeWidth=3;" parent="84sm-JnvDAqkllqsL5zi-1" source="xqJWrVlXxcV9ZFjP9cWG-17" target="xqJWrVlXxcV9ZFjP9cWG-13" edge="1">
          <mxGeometry relative="1" as="geometry" />
        </mxCell>
        <mxCell id="xqJWrVlXxcV9ZFjP9cWG-16" value="查询会员信息" style="edgeLabel;html=1;align=center;verticalAlign=middle;resizable=0;points=[];" parent="xqJWrVlXxcV9ZFjP9cWG-15" vertex="1" connectable="0">
          <mxGeometry x="-0.3057" y="-4" relative="1" as="geometry">
            <mxPoint as="offset" />
          </mxGeometry>
        </mxCell>
        <mxCell id="xqJWrVlXxcV9ZFjP9cWG-17" value="CRM" style="rounded=0;whiteSpace=wrap;html=1;" parent="84sm-JnvDAqkllqsL5zi-1" vertex="1">
          <mxGeometry x="360" y="560" width="120" height="60" as="geometry" />
        </mxCell>
        <mxCell id="xqJWrVlXxcV9ZFjP9cWG-18" value="积分抵现&lt;br&gt;积分兑换" style="edgeStyle=orthogonalEdgeStyle;rounded=0;orthogonalLoop=1;jettySize=auto;html=1;exitX=0.25;exitY=0;exitDx=0;exitDy=0;strokeColor=#007FFF;entryX=-0.008;entryY=0.617;entryDx=0;entryDy=0;entryPerimeter=0;strokeWidth=3;" parent="84sm-JnvDAqkllqsL5zi-1" source="xqJWrVlXxcV9ZFjP9cWG-10" target="xqJWrVlXxcV9ZFjP9cWG-10" edge="1">
          <mxGeometry relative="1" as="geometry">
            <mxPoint x="90" y="390" as="targetPoint" />
            <Array as="points">
              <mxPoint x="150" y="360" />
              <mxPoint x="90" y="360" />
              <mxPoint x="90" y="437" />
            </Array>
          </mxGeometry>
        </mxCell>
        <mxCell id="1wYKvM2LRM-FTaqmKEfr-0" value="一美多&lt;br&gt;（小程序、公众号、APP）" style="rounded=0;whiteSpace=wrap;html=1;" parent="84sm-JnvDAqkllqsL5zi-1" vertex="1">
          <mxGeometry x="560" y="230" width="120" height="60" as="geometry" />
        </mxCell>
        <mxCell id="1wYKvM2LRM-FTaqmKEfr-2" style="edgeStyle=orthogonalEdgeStyle;rounded=0;orthogonalLoop=1;jettySize=auto;html=1;exitX=0.5;exitY=0;exitDx=0;exitDy=0;entryX=1;entryY=0.5;entryDx=0;entryDy=0;" parent="84sm-JnvDAqkllqsL5zi-1" source="1wYKvM2LRM-FTaqmKEfr-0" target="1wYKvM2LRM-FTaqmKEfr-0" edge="1">
          <mxGeometry relative="1" as="geometry">
            <Array as="points">
              <mxPoint x="650" y="230" />
              <mxPoint x="650" y="210" />
              <mxPoint x="740" y="210" />
              <mxPoint x="740" y="260" />
            </Array>
          </mxGeometry>
        </mxCell>
        <mxCell id="1wYKvM2LRM-FTaqmKEfr-3" value="查询会员信息&lt;br&gt;注册办卡&lt;br&gt;增减美豆" style="edgeLabel;html=1;align=center;verticalAlign=middle;resizable=0;points=[];" parent="1wYKvM2LRM-FTaqmKEfr-2" vertex="1" connectable="0">
          <mxGeometry x="-0.0353" relative="1" as="geometry">
            <mxPoint as="offset" />
          </mxGeometry>
        </mxCell>
        <mxCell id="vRKhJfrK7Kl1I-yCUvPD-0" value="注册办卡" style="edgeStyle=orthogonalEdgeStyle;rounded=0;orthogonalLoop=1;jettySize=auto;html=1;fillColor=#f8cecc;strokeColor=#FF0000;strokeWidth=3;" edge="1" parent="84sm-JnvDAqkllqsL5zi-1">
          <mxGeometry relative="1" as="geometry">
            <Array as="points">
              <mxPoint x="70" y="190" />
            </Array>
            <mxPoint x="70" y="190" as="sourcePoint" />
            <mxPoint x="180" y="190" as="targetPoint" />
          </mxGeometry>
        </mxCell>
        <mxCell id="vRKhJfrK7Kl1I-yCUvPD-1" value="积分变动" style="edgeStyle=orthogonalEdgeStyle;rounded=0;orthogonalLoop=1;jettySize=auto;html=1;exitX=0.75;exitY=1;exitDx=0;exitDy=0;fillColor=#dae8fc;strokeColor=#007FFF;strokeWidth=3;" edge="1" parent="84sm-JnvDAqkllqsL5zi-1">
          <mxGeometry x="-0.0909" relative="1" as="geometry">
            <mxPoint as="offset" />
            <mxPoint x="70" y="230" as="sourcePoint" />
            <mxPoint x="180" y="230" as="targetPoint" />
          </mxGeometry>
        </mxCell>
        <mxCell id="vRKhJfrK7Kl1I-yCUvPD-2" value="查询会员信息" style="edgeStyle=orthogonalEdgeStyle;rounded=0;orthogonalLoop=1;jettySize=auto;html=1;exitX=0.5;exitY=1;exitDx=0;exitDy=0;strokeWidth=3;" edge="1" parent="84sm-JnvDAqkllqsL5zi-1">
          <mxGeometry x="-0.0909" relative="1" as="geometry">
            <Array as="points">
              <mxPoint x="70" y="270" />
            </Array>
            <mxPoint as="offset" />
            <mxPoint x="70" y="270" as="sourcePoint" />
            <mxPoint x="180" y="270" as="targetPoint" />
          </mxGeometry>
        </mxCell>
        <mxCell id="3EI5N3LXvHXVS2d3TF1G-0" value="会员业务现状" style="text;html=1;strokeColor=none;fillColor=none;align=left;verticalAlign=middle;whiteSpace=wrap;rounded=0;fontStyle=1;fontSize=18;" vertex="1" parent="84sm-JnvDAqkllqsL5zi-1">
          <mxGeometry x="70" y="120" width="140" height="20" as="geometry" />
        </mxCell>
      </root>
    </mxGraphModel>
  </diagram>
</mxfile>
